<svg width="60" height="58" viewBox="0 0 60 58" fill="none" xmlns="http://www.w3.org/2000/svg">
<path d="M52.9208 35.0134L11.171 45.9336C10.3986 46.1384 9.88793 46.8788 10.0196 47.6598C10.161 48.4955 10.9762 49.0628 11.8397 48.9264L54.529 42.1998C54.6534 42.1799 54.7854 42.1531 54.9097 42.1207C56.9415 41.5894 58.1411 39.568 57.5916 37.605C57.0436 35.6427 54.9507 34.482 52.9208 35.0134Z" fill="black"/>
<path d="M48.5045 47.4786L3.4568 53.585C2.65993 53.6952 2.05829 54.3739 2.0918 55.1673C2.12884 56.0129 2.86805 56.67 3.74286 56.6349L49.1918 54.8012C49.3124 54.7957 49.4406 54.785 49.5614 54.7688C51.645 54.487 53.0954 52.6254 52.8039 50.612C52.5123 48.5986 50.5866 47.1958 48.5045 47.4786Z" fill="black"/>
<path d="M46.4749 4.37653C40.5321 4.37653 34.517 6.43926 34.517 10.3815V11.9654C32.989 11.6524 31.3424 11.4874 29.6958 11.4874C23.753 11.4874 17.7359 13.55 17.7359 17.4914V19.0308C16.2732 18.7475 14.7094 18.5981 13.1452 18.5981C7.20235 18.5981 1.18524 20.6608 1.18524 24.6021C1.18524 24.9118 1.18524 33.1807 1.18524 33.4902C1.18524 37.4323 7.20235 39.4952 13.1452 39.4952C19.088 39.4952 25.1032 37.4324 25.1032 33.4902V31.9388C26.5672 32.2242 28.1274 32.3843 29.6957 32.3843C35.6384 32.3843 41.6536 30.3217 41.6536 26.3803V24.7985C43.1797 25.1121 44.8282 25.2736 46.4748 25.2736C52.4175 25.2736 58.4345 23.2109 58.4345 19.2696C58.4345 18.9597 58.4345 10.6912 58.4345 10.3815C58.4346 6.43926 52.4176 4.37653 46.4749 4.37653ZM13.1453 26.9305C7.7318 26.9305 5.05583 25.1435 4.98868 24.6039C5.05759 24.0608 7.7372 22.2746 13.1453 22.2746C18.555 22.2746 21.231 24.0608 21.2999 24.6004C21.233 25.1435 18.5605 26.9305 13.1453 26.9305ZM29.6958 19.8198C24.2823 19.8198 21.6062 18.0326 21.5392 17.4933C21.608 16.9501 24.2879 15.164 29.6958 15.164C35.1038 15.164 37.7817 16.9501 37.8504 17.4896C37.7834 18.0326 35.1094 19.8198 29.6958 19.8198ZM46.4749 12.7089C41.065 12.7089 38.389 10.9226 38.3203 10.3833C38.387 9.84031 41.0595 8.05307 46.4749 8.05307C51.8882 8.05307 54.5644 9.84031 54.6313 10.3796C54.5626 10.9226 51.8827 12.7089 46.4749 12.7089Z" fill="black"/>
<path d="M46.4749 9.07193C44.7292 9.07193 43.3139 9.65793 43.3139 10.3816C43.3139 11.1042 44.7291 11.6902 46.4749 11.6902C48.2206 11.6902 49.6357 11.1042 49.6357 10.3816C49.6357 9.65793 48.2204 9.07193 46.4749 9.07193Z" fill="black"/>
<path d="M29.6958 16.1827C27.95 16.1827 26.5349 16.7687 26.5349 17.4913C26.5349 18.2147 27.9499 18.8009 29.6958 18.8009C31.4396 18.8009 32.8546 18.2147 32.8546 17.4913C32.8546 16.7688 31.4396 16.1827 29.6958 16.1827Z" fill="black"/>
<path d="M13.1453 23.2935C11.3995 23.2935 9.9845 23.8797 9.9845 24.6022C9.9845 25.3257 11.3994 25.911 13.1453 25.911C14.8891 25.911 16.3042 25.3257 16.3042 24.6022C16.3042 23.8797 14.8891 23.2935 13.1453 23.2935Z" fill="black"/>
</svg>
